<svg width="200" height="64" viewBox="0 0 200 64" fill="none" xmlns="http://www.w3.org/2000/svg">
  <defs>
    <linearGradient id="grad1" x1="0%" y1="0%" x2="100%" y2="100%">
      <stop offset="0%" style="stop-color:#6A11CB;stop-opacity:1" />
      <stop offset="100%" style="stop-color:#2575FC;stop-opacity:1" />
    </linearGradient>
  </defs>
  <!-- "S" (original, unchanged) -->
  <g stroke="#CCCCCC" stroke-width="1">
    <polygon points="25,10 60,10 45,25 25,25" fill="url(#grad1)" />
    <polygon points="45,25 60,40 40,40 25,25" fill="url(#grad1)" opacity="0.8"/>
    <polygon points="60,40 25,40 40,55 60,55" fill="url(#grad1)" />
  </g>
  <!-- "." (dot after S, baseline centered) -->
  <circle cx="72" cy="55" r="4" fill="url(#grad1)" stroke="#CCCCCC" stroke-width="1"/>
  <!-- "A" (thicker legs, horizontally centered) -->
  <g stroke="#CCCCCC" stroke-width="1">
    <!-- Left leg -->
    <polygon points="88,55 103,10 109,10 94,55" fill="url(#grad1)" />
    <!-- Right leg -->
    <polygon points="118,55 103,10 109,10 124,55" fill="url(#grad1)" />
  </g>
  <!-- "." (dot after A, baseline centered) -->
  <circle cx="132" cy="55" r="4" fill="url(#grad1)" stroke="#CCCCCC" stroke-width="1"/>
  <!-- "M" (thicker, matching A style, horizontally centered) -->
  <g stroke="#CCCCCC" stroke-width="1">
    <!-- Left leg -->
    <polygon points="146,55 153,10 159,10 152,55" fill="url(#grad1)" />
    <!-- Left diagonal -->
    <polygon points="159,10 169,38 175,38 165,10" fill="url(#grad1)" />
    <!-- Right diagonal -->
    <polygon points="169,38 179,10 185,10 175,38" fill="url(#grad1)" />
    <!-- Right leg -->
    <polygon points="185,10 192,55 198,55 191,10" fill="url(#grad1)" />
  </g>
  <!-- "." (dot after M, baseline centered) -->
  <circle cx="206" cy="55" r="4" fill="url(#grad1)" stroke="#CCCCCC" stroke-width="1"/>
</svg>