<?xml version="1.0" standalone="no"?>
<!DOCTYPE svg PUBLIC "-//W3C//DTD SVG 20010904//EN"
 "http://www.w3.org/TR/2001/REC-SVG-20010904/DTD/svg10.dtd">
<svg version="1.0" xmlns="http://www.w3.org/2000/svg"
 width="500.000000pt" height="500.000000pt" viewBox="0 0 500.000000 500.000000"
 preserveAspectRatio="xMidYMid meet">
<metadata>
Created by potrace 1.14, written by Peter Selinger 2001-2017
</metadata>
<g transform="translate(0.000000,500.000000) scale(0.100000,-0.100000)"
fill="#000000" stroke="none">
<path d="M1070 4448 l0 -448 447 2 446 3 0 445 1 445 -447 0 -447 0 0 -447z"/>
<path d="M2059 4895 c-1 0 -3 -201 -4 -447 l-1 -448 446 0 446 0 0 445 c0 245
-2 446 -5 446 -4 1 -856 5 -882 4z"/>
<path d="M3039 4868 c-5 -73 -2 -871 4 -875 4 -2 204 -5 445 -5 l437 -1 3 447
2 446 -445 0 c-349 0 -445 -3 -446 -12z"/>
<path d="M1114 3912 l-31 -3 1 -442 1 -442 445 0 445 0 0 443 1 442 -46 1
c-166 3 -791 3 -816 1z"/>
<path d="M1083 2500 c0 -243 4 -443 8 -446 7 -4 703 -8 839 -5 l45 1 1 445 0
445 -447 0 -446 0 0 -440z"/>
<path d="M2059 2938 c-1 -2 -3 -202 -4 -445 l-1 -443 25 0 c51 -1 678 -1 772
0 l95 0 0 445 1 445 -444 0 c-244 0 -444 -1 -444 -2z"/>
<path d="M3025 2501 c0 -242 3 -443 7 -446 5 -6 739 -10 869 -6 14 1 16 48 16
446 l0 445 -446 0 -446 0 0 -439z"/>
<path d="M3025 1525 c0 -290 3 -445 10 -446 14 -1 846 -1 866 0 14 1 16 47 16
446 l0 445 -446 0 -446 0 0 -445z"/>
<path d="M1080 730 c-1 -148 -1 -308 -1 -355 0 -47 0 -127 1 -178 l0 -92 445
0 445 0 0 447 0 448 -445 0 -445 0 0 -270z"/>
<path d="M2053 555 c1 -305 4 -445 11 -448 6 -2 207 -3 446 -3 l435 1 1 448 1
447 -447 0 -447 0 0 -445z"/>
<path d="M3025 552 l0 -447 445 0 445 0 1 448 1 447 -446 0 -446 0 0 -448z"/>
</g>
</svg>
